<?xml version="1.0" encoding="UTF-8"?>
<svg version="1.1" xmlns="http://www.w3.org/2000/svg" width="113" height="113">
<path d="M0 0 C6.15848922 3.64596598 10.15514194 9.09339244 14 15 C14.495 15.495 14.495 15.495 15 16 C15.07244053 18.01964199 15.08377188 20.04167124 15.0625 22.0625 C15.05347656 23.16722656 15.04445313 24.27195312 15.03515625 25.41015625 C15.02355469 26.26480469 15.01195313 27.11945312 15 28 C15.680625 27.814375 16.36125 27.62875 17.0625 27.4375 C22.7179368 26.5952009 26.66881205 27.48126351 31.359375 30.68359375 C38.00705614 35.99470408 42.89586399 41.55496662 44.578125 50.06640625 C45.49858969 58.81751028 44.99926773 66.8238566 39.796875 74.16015625 C35.16296647 79.6019807 30.28458909 84.15136663 23.265625 85.96484375 C20.30980755 85.99666475 17.84453175 85.77578139 15 85 C15.2784375 86.0209375 15.2784375 86.0209375 15.5625 87.0625 C16.4047991 92.7179368 15.51873649 96.66881205 12.31640625 101.359375 C7.00529592 108.00705614 1.44503338 112.89586399 -7.06640625 114.578125 C-15.83176082 115.49941857 -23.83472694 115.01274134 -31.16015625 109.76171875 C-41.50733494 100.78532014 -41.50733494 100.78532014 -42.39013672 94.00244141 C-42.40096561 91.3008497 -42.28922182 88.68473977 -42 86 C-42.68747314 86.08048584 -43.37494629 86.16097168 -44.08325195 86.24389648 C-50.93291926 86.70101162 -54.81329983 85.7503623 -60.01757812 81.22631836 C-67.64787362 73.61748522 -71.78136206 67.48455745 -72 56.4375 C-71.66179572 46.3204479 -68.48140523 39.50174378 -61.28686523 32.45288086 C-56.77864996 28.62499145 -53.48416035 27.05869487 -47.5625 27 C-44.31640625 27.4375 -44.31640625 27.4375 -42 28 C-42.17402344 27.23558594 -42.34804688 26.47117187 -42.52734375 25.68359375 C-43.3954343 18.8132771 -42.17489426 14.12994075 -38.00585938 8.71362305 C-28.16088879 -2.25622266 -13.91817259 -4.30109425 0 0 Z " fill="#F6FAFC" transform="translate(70,0)"/>
<path d="M0 0 C6.15848922 3.64596598 10.15514194 9.09339244 14 15 C14.495 15.495 14.495 15.495 15 16 C16.39471954 24.24627929 17.79902665 35.07011956 13.53955078 42.57226562 C10.04258513 46.89981836 5.94040715 50.45508586 1.49047852 53.77685547 C-0.14437679 54.94899185 -0.14437679 54.94899185 -1 57 C-1.61294922 56.94650391 -2.22589844 56.89300781 -2.85742188 56.83789062 C-16.85855559 55.77812433 -16.85855559 55.77812433 -29.08984375 61.62890625 C-33.07156672 65.45854952 -36.65929379 69.60262272 -40 74 C-40 71 -40 71 -38.71484375 69.37426758 C-37.83505859 68.5180481 -37.83505859 68.5180481 -36.9375 67.64453125 C-36.30585937 67.02255859 -35.67421875 66.40058594 -35.0234375 65.75976562 C-34.35570312 65.11716797 -33.68796875 64.47457031 -33 63.8125 C-32.33226562 63.15830078 -31.66453125 62.50410156 -30.9765625 61.83007812 C-29.32421559 60.21313865 -27.66528399 58.60359509 -26 57 C-29.37248534 52.91096054 -32.74769799 49.29580442 -36.8125 45.875 C-40.4603562 42.26386718 -41.64296522 39.87079222 -42.0625 34.75 C-42.04422836 32.49997774 -42.02338311 30.24997495 -42 28 C-42.18433594 26.94554688 -42.36867188 25.89109375 -42.55859375 24.8046875 C-43.3198303 19.32108971 -42.5677498 15.49258991 -39.60546875 10.84765625 C-29.96428385 -1.82504281 -15.02039479 -4.64171092 0 0 Z " fill="#F6F9FB" transform="translate(70,0)"/>
<path d="M0 0 C-0.10183594 0.76441406 -0.20367188 1.52882813 -0.30859375 2.31640625 C-0.56559948 8.78827777 0.09673946 12.37165511 4.40625 17.203125 C8.10290504 20.98517984 11.99112951 24.55201184 16 28 C12.62751466 32.08903946 9.25230201 35.70419558 5.1875 39.125 C1.24850637 42.93842169 0.34003925 45.61046102 -0.0625 51.0625 C-0.08290383 53.04167114 -0.07642196 55.0221996 0 57 C-5.44737292 58.34318784 -10.20111404 58.4947814 -15.18603516 55.83251953 C-21.78877444 51.36303937 -27.47677294 45.77409353 -29.94238281 38.04638672 C-31.7529779 28.60076995 -31.39515258 19.0847782 -26.08984375 10.83984375 C-18.8609873 1.55776239 -11.89708145 -2.63972223 0 0 Z " fill="#025499" transform="translate(29,28)"/>
<path d="M0 0 C5.05628141 -1.37898584 9.44220241 -1.39627718 14.13867188 1.16748047 C21.81714345 6.40970876 27.73902888 12.76145563 29.578125 22.06640625 C30.49858969 30.81751028 29.99926773 38.8238566 24.796875 46.16015625 C20.16296647 51.6019807 15.28458909 56.15136663 8.265625 57.96484375 C5.30980755 57.99666475 2.84453175 57.77578139 0 57 C0.10183594 56.30777344 0.20367187 55.61554688 0.30859375 54.90234375 C0.50648039 50.35095109 0.35643352 46.7454647 -2.53564453 43.02392578 C-5.17165913 40.22987188 -7.92326508 37.61929817 -10.80297852 35.07788086 C-11.47901123 34.47468018 -12.15504395 33.87147949 -12.8515625 33.25 C-13.47885254 32.71890625 -14.10614258 32.1878125 -14.75244141 31.640625 C-16 30 -16 30 -15.89208984 27.98632812 C-14.85995356 25.68817245 -13.78853011 24.59696676 -11.875 22.96875 C-3.07275403 15.61763133 -3.07275403 15.61763133 0.375 5.125 C0.32473333 2.26957476 0.32473333 2.26957476 0 0 Z " fill="#025398" transform="translate(85,28)"/>
<path d="M0 0 C10.89 0 21.78 0 33 0 C33 12.54 33 25.08 33 38 C22.11 38 11.22 38 0 38 C0 25.46 0 12.92 0 0 Z " fill="#A4C6E0" transform="translate(40,65)"/>
<path d="M0 0 C4.2924976 0.47694418 6.04988685 3.04146998 9 6 C11.01239721 7.62037178 13.05495585 9.20395199 15.125 10.75 C16.15882812 11.52859375 17.19265625 12.3071875 18.2578125 13.109375 C20.90726947 15.12361656 20.90726947 15.12361656 24 16 C24 16.99 24 17.98 24 19 C22.576875 19.495 22.576875 19.495 21.125 20 C16.51567083 21.94176239 12.94572437 25.07294716 9.13671875 28.2578125 C7 30 7 30 5 31 C4.67 31.99 4.34 32.98 4 34 C2.35 34 0.7 34 -1 34 C-1.33 33.01 -1.66 32.02 -2 31 C-4.56693644 28.74286895 -4.56693644 28.74286895 -7.6875 26.5 C-9.24017578 25.33984375 -9.24017578 25.33984375 -10.82421875 24.15625 C-13.79718571 22.13770417 -16.7493929 20.52052386 -20 19 C-20 18.01 -20 17.02 -20 16 C-19.071875 15.525625 -18.14375 15.05125 -17.1875 14.5625 C-10.83012333 10.94087968 -4.07414856 6.11122284 0 0 Z " fill="#FDF6F6" transform="translate(55,11)"/>
<path d="M0 0 C10.89 0 21.78 0 33 0 C33 12.54 33 25.08 33 38 C22.11 38 11.22 38 0 38 C0 25.46 0 12.92 0 0 Z M3 2 C1.64045375 7.94789465 1.64045375 7.94789465 2 18 C9.59 18 17.18 18 25 18 C25 18.66 25 19.32 25 20 C17.41 20 9.82 20 2 20 C2 25.28 2 30.56 2 36 C11.87803087 36.77306329 21.12050216 37.09960164 31 36 C32.1124534 18.98000462 32.1124534 18.98000462 31 2 C30.34 2 29.68 2 29 2 C29 12.89 29 23.78 29 35 C28 34 28 34 27.88647461 30.94897461 C27.88663366 29.60008729 27.89232388 28.25119386 27.90234375 26.90234375 C27.9037587 26.19348526 27.90517365 25.48462677 27.90663147 24.75428772 C27.91224557 22.48198288 27.92480037 20.20977525 27.9375 17.9375 C27.94251319 16.40039204 27.94707641 14.86328255 27.95117188 13.32617188 C27.96221958 9.55074358 27.97949359 5.77538829 28 2 C27.01 2 26.02 2 25 2 C25 6.29 25 10.58 25 15 C24 14 24 14 23.90234375 11.27734375 C23.91394531 10.17519531 23.92554687 9.07304688 23.9375 7.9375 C23.94652344 6.83277344 23.95554687 5.72804688 23.96484375 4.58984375 C23.97644531 3.73519531 23.98804687 2.88054687 24 2 C20.44086771 0.81362257 17.201855 0.85384654 13.5 0.875 C12.48486328 0.86919922 12.48486328 0.86919922 11.44921875 0.86328125 C8.35926233 0.86937584 5.95320689 1.0155977 3 2 Z " fill="#3379B1" transform="translate(40,65)"/>
<path d="M0 0 C4.2924976 0.47694418 6.04988685 3.04146998 9 6 C11.01239721 7.62037178 13.05495585 9.20395199 15.125 10.75 C16.15882812 11.52859375 17.19265625 12.3071875 18.2578125 13.109375 C20.90726947 15.12361656 20.90726947 15.12361656 24 16 C24 16.99 24 17.98 24 19 C22.576875 19.495 22.576875 19.495 21.125 20 C16.51567083 21.94176239 12.94572437 25.07294716 9.13671875 28.2578125 C7 30 7 30 5 31 C4.67 31.99 4.34 32.98 4 34 C2.35 34 0.7 34 -1 34 C-1.33 33.01 -1.66 32.02 -2 31 C-4.56693644 28.74286895 -4.56693644 28.74286895 -7.6875 26.5 C-9.24017578 25.33984375 -9.24017578 25.33984375 -10.82421875 24.15625 C-13.79718571 22.13770417 -16.7493929 20.52052386 -20 19 C-20 18.01 -20 17.02 -20 16 C-19.071875 15.525625 -18.14375 15.05125 -17.1875 14.5625 C-10.83012333 10.94087968 -4.07414856 6.11122284 0 0 Z M-3.57421875 6.625 C-4.24130859 7.16640625 -4.90839844 7.7078125 -5.59570312 8.265625 C-6.28599609 8.83796875 -6.97628906 9.4103125 -7.6875 10 C-8.7403418 10.85851562 -8.7403418 10.85851562 -9.81445312 11.734375 C-11.54839564 13.14983828 -13.27651667 14.5718353 -15 16 C-14.61501271 18.43293744 -14.29096937 19.71422567 -12.50952148 21.46386719 C-11.57474976 22.12370605 -11.57474976 22.12370605 -10.62109375 22.796875 C-9.94755859 23.28027344 -9.27402344 23.76367188 -8.58007812 24.26171875 C-7.87302734 24.75285156 -7.16597656 25.24398437 -6.4375 25.75 C-5.72658203 26.25660156 -5.01566406 26.76320313 -4.28320312 27.28515625 C-2.52898568 28.53312303 -0.76536641 29.76785497 1 31 C6.4301658 28.0650692 6.4301658 28.0650692 11 24 C12.82764775 22.64589695 14.69627045 21.36900777 16.57421875 20.0859375 C17.04472656 19.72757813 17.51523438 19.36921875 18 19 C18 18.67 18 18.34 18 18 C16.02 18 14.04 18 12 18 C12 16.68 12 15.36 12 14 C10.35 14 8.7 14 7 14 C6.67 16.64 6.34 19.28 6 22 C-0.15234375 21.4140625 -0.15234375 21.4140625 -2 21 C-2.33 20.34 -2.66 19.68 -3 19 C-1.02 18.67 0.96 18.34 3 18 C2.34 16.35 1.68 14.7 1 13 C2.32 14.32 3.64 15.64 5 17 C5 15.68 5 14.36 5 13 C7.64 13 10.28 13 13 13 C13 14.32 13 15.64 13 17 C14.98 17 16.96 17 19 17 C14.36084305 11.88093026 8.85517034 7.65268366 3 4 C-0.47098534 4 -0.98146145 4.4976094 -3.57421875 6.625 Z " fill="#DF4946" transform="translate(55,11)"/>
<path d="M0 0 C10.23 0 20.46 0 31 0 C31 2.31 31 4.62 31 7 C30.67 7 30.34 7 30 7 C30 5.35 30 3.7 30 2 C29.34 2 28.68 2 28 2 C28 12.89 28 23.78 28 35 C20.08 35 12.16 35 4 35 C4 34.67 4 34.34 4 34 C11.59 34 19.18 34 27 34 C27 30.04 27 26.08 27 22 C19.41 22 11.82 22 4 22 C4 21.67 4 21.34 4 21 C11.59 21 19.18 21 27 21 C27 19.68 27 18.36 27 17 C19.41 17 11.82 17 4 17 C4 16.67 4 16.34 4 16 C11.59 16 19.18 16 27 16 C27 11.38 27 6.76 27 2 C26.01 2 25.02 2 24 2 C24 6.29 24 10.58 24 15 C18.06 15 12.12 15 6 15 C6 14.67 6 14.34 6 14 C11.61 14 17.22 14 23 14 C23 10.04 23 6.08 23 2 C16.07 2 9.14 2 2 2 C1.67 5.96 1.34 9.92 1 14 C0.67 14 0.34 14 0 14 C0 9.38 0 4.76 0 0 Z " fill="#05569B" transform="translate(41,65)"/>
<path d="M0 0 C1.65 0 3.3 0 5 0 C5 1.32 5 2.64 5 4 C6.98 4 8.96 4 11 4 C8.1303566 7.02906803 5.73178823 9.19429602 2 11 C1.34 11.66 0.68 12.32 0 13 C-1.93122728 14.93122728 -3.51281179 15.9340622 -6 17 C-8.58793807 15.56739143 -10.91454966 14.11158381 -13 12 C-13.4375 8.1875 -13.4375 8.1875 -13 5 C-12.01 5 -11.02 5 -10 5 C-9.34 5.66 -8.68 6.32 -8 7 C-5.67724823 7.40047444 -3.34260643 7.7397104 -1 8 C-0.67 5.36 -0.34 2.72 0 0 Z " fill="#E77A77" transform="translate(62,25)"/>
<path d="M0 0 C5.94 0 11.88 0 18 0 C18 2.97 18 5.94 18 9 C12.06 9 6.12 9 0 9 C0 6.03 0 3.06 0 0 Z " fill="#09589C" transform="translate(47,89)"/>
<path d="M0 0 C0.67675781 -0.00386719 1.35351562 -0.00773437 2.05078125 -0.01171875 C5.14073767 -0.00562416 7.54679311 0.1405977 10.5 1.125 C10.48839844 1.97964844 10.47679688 2.83429688 10.46484375 3.71484375 C10.45582031 4.81957031 10.44679688 5.92429687 10.4375 7.0625 C10.42589844 8.16464844 10.41429688 9.26679687 10.40234375 10.40234375 C10.18737429 13.03947634 10.18737429 13.03947634 11.5 14.125 C11.5 9.835 11.5 5.545 11.5 1.125 C12.49 1.125 13.48 1.125 14.5 1.125 C14.5 5.745 14.5 10.365 14.5 15.125 C7.24 15.125 -0.02 15.125 -7.5 15.125 C-7.5 14.135 -7.5 13.145 -7.5 12.125 C-2.22 12.125 3.06 12.125 8.5 12.125 C8.5 8.825 8.5 5.525 8.5 2.125 C2.56 2.125 -3.38 2.125 -9.5 2.125 C-9.5 7.075 -9.5 12.025 -9.5 17.125 C-10.16 17.125 -10.82 17.125 -11.5 17.125 C-11.52725341 15.3959226 -11.54650987 13.66671824 -11.5625 11.9375 C-11.57410156 10.97457031 -11.58570313 10.01164062 -11.59765625 9.01953125 C-11.50486622 6.26923487 -11.12111685 3.80020409 -10.5 1.125 C-6.94086771 -0.06137743 -3.701855 -0.02115346 0 0 Z " fill="#DCEBF4" transform="translate(53.5,65.875)"/>
<path d="M0 0 C0.66 0 1.32 0 2 0 C2.80226815 11.46626331 3.11287545 22.54594341 2 34 C-7.80222165 34.70092894 -17.21170187 35.25849547 -27 34 C-27 28.72 -27 23.44 -27 18 C-26.34 18 -25.68 18 -25 18 C-25 22.95 -25 27.9 -25 33 C-16.75 33 -8.5 33 0 33 C0 22.11 0 11.22 0 0 Z " fill="#EBF3F8" transform="translate(69,67)"/>
<path d="M0 0 C1.32 0 2.64 0 4 0 C4 0.99 4 1.98 4 3 C4.69480469 3.23460937 5.38960937 3.46921875 6.10546875 3.7109375 C9.54688715 5.24355298 12.35901548 7.32824412 15.3125 9.625 C15.86228516 10.04523437 16.41207031 10.46546875 16.97851562 10.8984375 C18.32292168 11.92720039 19.66201413 12.9629009 21 14 C21.78375 13.505 22.5675 13.01 23.375 12.5 C26 11 26 11 28 11 C28 8.69 28 6.38 28 4 C28.66 5.32 29.32 6.64 30 8 C30.61875 7.505 31.2375 7.01 31.875 6.5 C34 5 34 5 36 5 C34.54850728 8.6723559 32.78382568 10.04825902 29.4375 12.0625 C25.72050652 14.17603945 25.72050652 14.17603945 24 18 C22.35 18 20.7 18 19 18 C18.67 17.01 18.34 16.02 18 15 C15.43306356 12.74286895 15.43306356 12.74286895 12.3125 10.5 C10.75982422 9.33984375 10.75982422 9.33984375 9.17578125 8.15625 C6.20281429 6.13770417 3.2506071 4.52052386 0 3 C0 2.01 0 1.02 0 0 Z " fill="#DF4846" transform="translate(35,27)"/>
<path d="M0 0 C5.94 0 11.88 0 18 0 C18 3.3 18 6.6 18 10 C12.72 10 7.44 10 2 10 C2 10.99 2 11.98 2 13 C9.26 13.33 16.52 13.66 24 14 C23.67 15.32 23.34 16.64 23 18 C23 17.01 23 16.02 23 15 C15.41 15 7.82 15 0 15 C0 10.05 0 5.1 0 0 Z M2 1 C2 3.64 2 6.28 2 9 C6.95 9 11.9 9 17 9 C17 6.36 17 3.72 17 1 C12.05 1 7.1 1 2 1 Z " fill="#4B8ABB" transform="translate(44,68)"/>
<path d="M0 0 C0.99 0.99 1.98 1.98 3 3 C3.33 2.34 3.66 1.68 4 1 C6.64 1 9.28 1 12 1 C12 2.32 12 3.64 12 5 C15.3 4.34 18.6 3.68 22 3 C22.33 4.32 22.66 5.64 23 7 C20.36 7.99 17.72 8.98 15 10 C15.33 9.01 15.66 8.02 16 7 C13.525 6.505 13.525 6.505 11 6 C11 4.68 11 3.36 11 2 C9.35 2 7.7 2 6 2 C6 4.64 6 7.28 6 10 C2.42355152 11.2380014 -0.33694766 10.74926071 -4 10 C-4 9.01 -4 8.02 -4 7 C-2.02 6.67 -0.04 6.34 2 6 C1.01 5.01 0.02 4.02 -1 3 C-0.67 2.01 -0.34 1.02 0 0 Z " fill="#E04C49" transform="translate(56,23)"/>
<path d="M0 0 C0.66 0.33 1.32 0.66 2 1 C0.25113898 2.91771657 -1.49904501 4.83419683 -3.25 6.75 C-3.74113281 7.28882813 -4.23226563 7.82765625 -4.73828125 8.3828125 C-5.22167969 8.91132812 -5.70507812 9.43984375 -6.203125 9.984375 C-6.64301758 10.46616211 -7.08291016 10.94794922 -7.53613281 11.44433594 C-9 13 -9 13 -11.13671875 14.8359375 C-13.49315459 17.57276236 -13.53333291 19.06664671 -13.609375 22.640625 C-13.64160156 23.71054687 -13.67382812 24.78046875 -13.70703125 25.8828125 C-13.72121094 26.99398437 -13.73539063 28.10515625 -13.75 29.25 C-13.77964844 30.37664063 -13.80929687 31.50328125 -13.83984375 32.6640625 C-13.91048912 35.44278021 -13.96321277 38.22066148 -14 41 C-14.33 41 -14.66 41 -15 41 C-17.60802469 18.63786008 -17.60802469 18.63786008 -11.66015625 10.77734375 C-8.10393767 6.8125566 -4.20070026 3.2704388 0 0 Z " fill="#6A95B5" transform="translate(15,28)"/>
<path d="M0 0 C1.65 0 3.3 0 5 0 C5 1.32 5 2.64 5 4 C6.98 4 8.96 4 11 4 C8.19195732 6.96404505 5.81684226 9.44499019 2 11 C1.87625 10.030625 1.7525 9.06125 1.625 8.0625 C1.41875 7.051875 1.2125 6.04125 1 5 C0.34 4.67 -0.32 4.34 -1 4 C-0.67 2.68 -0.34 1.36 0 0 Z " fill="#FDF9F8" transform="translate(62,25)"/>
<path d="M0 0 C1.65 0 3.3 0 5 0 C5 1.32 5 2.64 5 4 C4.34 4 3.68 4 3 4 C3 6.31 3 8.62 3 11 C-0.53372712 9.03681826 -3.24479785 6.95929119 -6 4 C-4.02 4 -2.04 4 0 4 C0 2.68 0 1.36 0 0 Z " fill="#FDF8F8" transform="translate(46,25)"/>
<path d="M0 0 C3.63 0 7.26 0 11 0 C11 1.65 11 3.3 11 5 C7.37 5 3.74 5 0 5 C0 3.35 0 1.7 0 0 Z " fill="#0C5B9E" transform="translate(48,70)"/>
<path d="M0 0 C0.99 0 1.98 0 3 0 C3 4.62 3 9.24 3 14 C2.01 14 1.02 14 0 14 C0 9.38 0 4.76 0 0 Z " fill="#B3CFE4" transform="translate(65,67)"/>
<path d="M0 0 C4.15151338 1.44202476 7.29978445 3.5010438 10.8125 6.125 C11.78832031 6.84945313 12.76414062 7.57390625 13.76953125 8.3203125 C14.50558594 8.87460937 15.24164063 9.42890625 16 10 C14.390625 10.8046875 14.390625 10.8046875 12 11 C9.72065785 9.44697672 7.7903984 7.94573829 5.75 6.125 C5.19570312 5.65191406 4.64140625 5.17882812 4.0703125 4.69140625 C2.68470439 3.49350367 1.33860513 2.25020668 0 1 C0 0.67 0 0.34 0 0 Z " fill="#DE413E" transform="translate(60,16)"/>
<path d="M0 0 C3.63 0 7.26 0 11 0 C9.35 1.65 7.7 3.3 6 5 C1.125 2.25 1.125 2.25 0 0 Z " fill="#FCF3F2" transform="translate(51,37)"/>
<path d="M0 0 C2.97 0 5.94 0 9 0 C5 2 5 2 2 2 C1.67 5.96 1.34 9.92 1 14 C0.67 14 0.34 14 0 14 C0 9.38 0 4.76 0 0 Z " fill="#1360A1" transform="translate(41,65)"/>
<path d="M0 0 C1.32 0 2.64 0 4 0 C4 0.99 4 1.98 4 3 C4.7425 3.2475 5.485 3.495 6.25 3.75 C9.20124062 5.09147301 10.84814974 6.60905526 13 9 C9.62268144 9 9.0672036 8.54983086 6.5 6.5625 C4.21358374 4.80256117 2.80046379 3.93348793 0 3 C0 2.01 0 1.02 0 0 Z " fill="#DD3E3B" transform="translate(35,27)"/>
<path d="M0 0 C0 1.32 0 2.64 0 4 C0.66 4.33 1.32 4.66 2 5 C1.01 5 0.02 5 -1 5 C-1 3.68 -1 2.36 -1 1 C-2.65 1 -4.3 1 -6 1 C-6.33 2.32 -6.66 3.64 -7 5 C-8.65 4.67 -10.3 4.34 -12 4 C-8.41084094 -0.78554541 -5.58334594 -0.37222306 0 0 Z " fill="#EEA19F" transform="translate(52,24)"/>
<path d="M0 0 C2.97 0 5.94 0 9 0 C9.33 0.99 9.66 1.98 10 3 C6.42355152 4.2380014 3.66305234 3.74926071 0 3 C0 2.01 0 1.02 0 0 Z " fill="#DE4341" transform="translate(52,30)"/>
<path d="M0 0 C2 3.75 2 3.75 2 6 C7.94 5.505 7.94 5.505 14 5 C13.67 5.99 13.34 6.98 13 8 C11.02090602 8.02686553 9.04171029 8.04633375 7.0625 8.0625 C5.96035156 8.07410156 4.85820313 8.08570313 3.72265625 8.09765625 C1 8 1 8 0 7 C-0.04092937 4.66702567 -0.04241723 2.33294775 0 0 Z " fill="#ED9A98" transform="translate(49,30)"/>
<path d="M0 0 C0.99 0.99 1.98 1.98 3 3 C3.66 2.34 4.32 1.68 5 1 C5.38218767 2.65614657 5.71395102 4.32457024 6 6 C5 7 5 7 2.4375 7.0625 C1.2309375 7.0315625 1.2309375 7.0315625 0 7 C0.66 6.67 1.32 6.34 2 6 C1.01 5.01 0.02 4.02 -1 3 C-0.67 2.01 -0.34 1.02 0 0 Z " fill="#EB9391" transform="translate(56,23)"/>
<path d="M0 0 C0.66 0.66 1.32 1.32 2 2 C2.99 1.67 3.98 1.34 5 1 C5.33 2.32 5.66 3.64 6 5 C3.04335481 6.4783226 0.25770263 6.06032783 -3 6 C-2.01 5.34 -1.02 4.68 0 4 C0 2.68 0 1.36 0 0 Z " fill="#F7D6D5" transform="translate(52,24)"/>
<path d="M0 0 C7.26153846 -0.61538462 7.26153846 -0.61538462 11 2.5 C11.66 3.325 12.32 4.15 13 5 C11.02 5 9.04 5 7 5 C7 3.68 7 2.36 7 1 C4.69 1 2.38 1 0 1 C0 0.67 0 0.34 0 0 Z " fill="#F9E2E2" transform="translate(61,23)"/>
</svg>
